<?xml version="1.0" encoding="iso-8859-1"?>
<!-- Uploaded to: SVG Repo, www.svgrepo.com, Generator: SVG Repo Mixer Tools -->
<svg fill="#000000" height="800px" width="800px" version="1.1" id="Layer_1" xmlns="http://www.w3.org/2000/svg" xmlns:xlink="http://www.w3.org/1999/xlink" 
	 viewBox="0 0 512 512" xml:space="preserve">
<g transform="translate(1 1)">
	<g>
		<g>
			<path d="M263.533,58.733c5.12,0,8.533-3.413,8.533-8.533s-3.413-8.533-8.533-8.533S255,45.08,255,50.2
				S258.413,58.733,263.533,58.733z"/>
			<path d="M314.733,109.933c5.12,0,8.533-3.413,8.533-8.533s-3.413-8.533-8.533-8.533S306.2,96.28,306.2,101.4
				S309.613,109.933,314.733,109.933z"/>
			<path d="M451.267,109.933c-5.12-3.413-11.947-3.413-17.067,0l-42.667,24.287v-24.287c0-14.507-11.093-25.6-25.6-25.6h-0.474
				c0.305-2.801,0.474-5.646,0.474-8.533c0-42.667-34.133-76.8-76.8-76.8c-29.875,0-55.547,16.746-68.267,41.426
				C208.147,15.746,182.475-1,152.6-1c-42.667,0-76.8,34.133-76.8,76.8c0,2.888,0.169,5.732,0.474,8.533H75.8
				c-14.507,0-25.6,11.093-25.6,25.6V229.4c0,14.507,11.093,25.6,25.6,25.6h103.225c3.495,17.82,17.781,31.342,36.013,33.742
				L102.253,498.2c-1.707,4.267-0.853,9.387,3.413,11.947c1.707,0.853,2.56,0.853,4.267,0.853c3.413,0,5.973-1.707,7.68-4.267
				l103.253-191.756v187.489c0,5.12,3.413,8.533,8.533,8.533c5.12,0,8.533-3.413,8.533-8.533V314.977l103.253,191.756
				c1.707,2.56,4.267,4.267,7.68,4.267c1.707,0,2.56,0,4.267-0.853c4.267-2.56,5.973-7.68,3.413-11.947L243.761,288.742
				c18.232-2.4,32.518-15.922,36.013-33.742h86.159c14.507,0,25.6-11.093,25.6-25.6v-24.944L434.2,229.4
				c2.56,1.707,5.973,2.56,8.533,2.56s5.973-0.853,8.533-3.413c5.12-2.56,8.533-8.533,8.533-14.507v-89.6
				C459.8,118.467,456.387,113.347,451.267,109.933z M361.667,101.4h4.267c5.12,0,8.533,3.413,8.533,8.533v39.253v20.48H237.933
				c-5.12,0-8.533-3.413-8.533-8.533V124.26c12.656,15.62,31.353,26.096,52.667,28.009c0.931,0.087,1.866,0.159,2.806,0.211
				c0.256,0.014,0.514,0.022,0.771,0.034c1.157,0.053,2.319,0.087,3.489,0.087c1.224,0,2.438-0.036,3.647-0.091
				c0.318-0.015,0.634-0.037,0.951-0.055c0.951-0.055,1.897-0.125,2.838-0.213c0.267-0.025,0.534-0.05,0.801-0.078
				c16.651-1.728,31.679-8.651,43.455-19.386c0.081-0.074,0.159-0.15,0.24-0.224c0.683-0.628,1.355-1.267,2.015-1.92
				c0.377-0.371,0.746-0.748,1.116-1.127c0.308-0.317,0.613-0.637,0.915-0.96c5.754-6.109,10.504-13.168,14.008-20.933
				c0.168-0.366,0.333-0.733,0.496-1.103c0.172-0.397,0.344-0.794,0.509-1.194C360.665,104.027,361.188,102.727,361.667,101.4z
				 M289.133,16.067c33.28,0,59.733,26.453,59.733,59.733c0,13.237-4.196,25.385-11.331,35.227
				c-10.031,13.515-25.649,22.699-43.093,24.264c-0.318,0.027-0.637,0.049-0.956,0.071c-0.527,0.039-1.055,0.077-1.585,0.102
				c-0.918,0.041-1.839,0.069-2.768,0.069s-1.85-0.028-2.768-0.069c-0.531-0.025-1.058-0.063-1.586-0.102
				c-0.319-0.022-0.637-0.044-0.955-0.071c-25.046-2.247-46.282-20.206-51.865-44.131c-0.249-1.245-0.722-2.34-1.365-3.274
				c-0.784-3.897-1.195-7.939-1.195-12.086C229.4,42.52,255.853,16.067,289.133,16.067z M152.6,16.067
				c33.28,0,59.733,26.453,59.733,59.733c0,13.237-4.196,25.385-11.331,35.227c-10.031,13.515-25.649,22.699-43.093,24.264
				c-0.318,0.027-0.637,0.049-0.956,0.071c-0.527,0.039-1.055,0.077-1.585,0.102c-0.918,0.041-1.839,0.069-2.768,0.069
				s-1.85-0.028-2.768-0.069c-0.531-0.025-1.058-0.063-1.586-0.102c-0.319-0.022-0.637-0.044-0.955-0.071
				c-25.046-2.247-46.282-20.206-51.865-44.131c-0.249-1.245-0.722-2.34-1.365-3.274c-0.784-3.897-1.195-7.939-1.195-12.086
				C92.867,42.52,119.32,16.067,152.6,16.067z M237.933,272.067h-6.187c-0.07-0.021-0.142-0.033-0.212-0.052
				c-0.17-0.047-0.34-0.091-0.511-0.126c-0.095-0.02-0.191-0.034-0.287-0.05c-0.177-0.03-0.354-0.058-0.531-0.075
				c-0.115-0.012-0.231-0.016-0.346-0.023c-0.154-0.009-0.307-0.018-0.46-0.018c-0.152,0-0.304,0.009-0.456,0.018
				c-0.117,0.007-0.234,0.011-0.35,0.023c-0.176,0.018-0.352,0.045-0.527,0.075c-0.097,0.016-0.194,0.031-0.29,0.05
				c-0.17,0.035-0.339,0.079-0.508,0.125c-0.071,0.019-0.144,0.032-0.215,0.053h-6.187c-11.093,0-20.48-6.827-23.893-17.067h64.853
				C258.413,265.24,249.027,272.067,237.933,272.067z M374.467,229.4c0,5.12-3.413,8.533-8.533,8.533h-93.867h-85.333H75.8
				c-5.12,0-8.533-3.413-8.533-8.533V109.933c0-5.12,3.413-8.533,8.533-8.533h4.267c0.462,1.28,0.966,2.534,1.49,3.778
				c0.236,0.576,0.485,1.145,0.734,1.714c0.04,0.089,0.079,0.177,0.12,0.266c10.721,24.175,33.506,41.62,60.895,44.873
				c0.136,0.017,0.271,0.035,0.406,0.051c0.711,0.081,1.425,0.15,2.142,0.211c0.583,0.051,1.168,0.094,1.754,0.132
				c0.498,0.031,0.995,0.066,1.496,0.088c1.161,0.053,2.326,0.087,3.497,0.087c1.17,0,2.332-0.034,3.489-0.087
				c0.257-0.011,0.515-0.02,0.771-0.034c0.94-0.052,1.875-0.124,2.806-0.211c21.314-1.913,40.012-12.389,52.667-28.009v36.874
				c0,14.507,11.093,25.6,25.6,25.6h136.533v2.56V229.4z M442.733,214.893l-51.2-29.867V178.2v-23.893l51.2-29.867V214.893z"/>
			<path d="M263.533,109.933c5.12,0,8.533-3.413,8.533-8.533s-3.413-8.533-8.533-8.533S255,96.28,255,101.4
				S258.413,109.933,263.533,109.933z"/>
			<path d="M289.133,84.333c5.12,0,8.533-3.413,8.533-8.533s-3.413-8.533-8.533-8.533c-5.12,0-8.533,3.413-8.533,8.533
				S284.013,84.333,289.133,84.333z"/>
			<path d="M152.6,84.333c5.12,0,8.533-3.413,8.533-8.533s-3.413-8.533-8.533-8.533s-8.533,3.413-8.533,8.533
				S147.48,84.333,152.6,84.333z"/>
			<path d="M314.733,58.733c5.12,0,8.533-3.413,8.533-8.533s-3.413-8.533-8.533-8.533S306.2,45.08,306.2,50.2
				S309.613,58.733,314.733,58.733z"/>
			<path d="M127,58.733c5.12,0,8.533-3.413,8.533-8.533s-3.413-8.533-8.533-8.533c-5.12,0-8.533,3.413-8.533,8.533
				S121.88,58.733,127,58.733z"/>
			<path d="M178.2,109.933c5.12,0,8.533-3.413,8.533-8.533s-3.413-8.533-8.533-8.533c-5.12,0-8.533,3.413-8.533,8.533
				S173.08,109.933,178.2,109.933z"/>
			<path d="M127,109.933c5.12,0,8.533-3.413,8.533-8.533s-3.413-8.533-8.533-8.533c-5.12,0-8.533,3.413-8.533,8.533
				S121.88,109.933,127,109.933z"/>
			<path d="M255,203.8c-5.12,0-8.533,3.413-8.533,8.533c0,5.12,3.413,8.533,8.533,8.533c5.12,0,8.533-3.413,8.533-8.533
				C263.533,207.213,260.12,203.8,255,203.8z"/>
			<path d="M297.667,203.8c-5.12,0-8.533,3.413-8.533,8.533c0,5.12,3.413,8.533,8.533,8.533c5.12,0,8.533-3.413,8.533-8.533
				C306.2,207.213,302.787,203.8,297.667,203.8z"/>
			<path d="M340.333,203.8c-5.12,0-8.533,3.413-8.533,8.533c0,5.12,3.413,8.533,8.533,8.533s8.533-3.413,8.533-8.533
				C348.867,207.213,345.453,203.8,340.333,203.8z"/>
			<path d="M178.2,58.733c5.12,0,8.533-3.413,8.533-8.533s-3.413-8.533-8.533-8.533c-5.12,0-8.533,3.413-8.533,8.533
				S173.08,58.733,178.2,58.733z"/>
			<path d="M195.267,203.8H101.4c-5.12,0-8.533,3.413-8.533,8.533c0,5.12,3.413,8.533,8.533,8.533h93.867
				c5.12,0,8.533-3.413,8.533-8.533C203.8,207.213,200.387,203.8,195.267,203.8z"/>
			<path d="M101.4,186.733h59.733c5.12,0,8.533-3.413,8.533-8.533s-3.413-8.533-8.533-8.533H101.4c-5.12,0-8.533,3.413-8.533,8.533
				S96.28,186.733,101.4,186.733z"/>
		</g>
	</g>
</g>
</svg>